<?xml version="1.0" encoding="UTF-8" standalone="no"?>
<!DOCTYPE svg PUBLIC "-//W3C//DTD SVG 1.1//EN"
 "http://www.w3.org/Graphics/SVG/1.1/DTD/svg11.dtd">
<!-- Generated by graphviz version 9.0.0 (20230911.1827)
 -->
<!-- Title: Tree Pages: 1 -->
<svg width="1181pt" height="462pt"
 viewBox="0.00 0.00 1181.12 461.50" xmlns="http://www.w3.org/2000/svg" xmlns:xlink="http://www.w3.org/1999/xlink">
<g id="graph0" class="graph" transform="scale(1 1) rotate(0) translate(4 457.5)">
<title>Tree</title>
<polygon fill="white" stroke="none" points="-4,4 -4,-457.5 1177.12,-457.5 1177.12,4 -4,4"/>
<!-- 0 -->
<g id="node1" class="node">
<title>0</title>
<path fill="#eca16c" stroke="black" d="M629.62,-453.5C629.62,-453.5 507.88,-453.5 507.88,-453.5 501.88,-453.5 495.88,-447.5 495.88,-441.5 495.88,-441.5 495.88,-375 495.88,-375 495.88,-369 501.88,-363 507.88,-363 507.88,-363 629.62,-363 629.62,-363 635.62,-363 641.62,-369 641.62,-375 641.62,-375 641.62,-441.5 641.62,-441.5 641.62,-447.5 635.62,-453.5 629.62,-453.5"/>
<text text-anchor="start" x="533.88" y="-436.2" font-family="Helvetica,sans-Serif" font-size="14.00">Age ≤ 42.5</text>
<text text-anchor="start" x="518.88" y="-419.7" font-family="Helvetica,sans-Serif" font-size="14.00">entropy = 0.729</text>
<text text-anchor="start" x="513.25" y="-403.2" font-family="Helvetica,sans-Serif" font-size="14.00">samples = 10000</text>
<text text-anchor="start" x="503.88" y="-386.7" font-family="Helvetica,sans-Serif" font-size="14.00">value = [7963, 2037]</text>
<text text-anchor="start" x="524.5" y="-370.2" font-family="Helvetica,sans-Serif" font-size="14.00">class = Exited</text>
</g>
<!-- 1 -->
<g id="node2" class="node">
<title>1</title>
<path fill="#e89253" stroke="black" d="M501.38,-327C501.38,-327 372.12,-327 372.12,-327 366.12,-327 360.12,-321 360.12,-315 360.12,-315 360.12,-248.5 360.12,-248.5 360.12,-242.5 366.12,-236.5 372.12,-236.5 372.12,-236.5 501.38,-236.5 501.38,-236.5 507.38,-236.5 513.38,-242.5 513.38,-248.5 513.38,-248.5 513.38,-315 513.38,-315 513.38,-321 507.38,-327 501.38,-327"/>
<text text-anchor="start" x="368.12" y="-309.7" font-family="Helvetica,sans-Serif" font-size="14.00">NumOfProducts ≤ 2.5</text>
<text text-anchor="start" x="386.88" y="-293.2" font-family="Helvetica,sans-Serif" font-size="14.00">entropy = 0.521</text>
<text text-anchor="start" x="385.38" y="-276.7" font-family="Helvetica,sans-Serif" font-size="14.00">samples = 7106</text>
<text text-anchor="start" x="376" y="-260.2" font-family="Helvetica,sans-Serif" font-size="14.00">value = [6274, 832]</text>
<text text-anchor="start" x="392.5" y="-243.7" font-family="Helvetica,sans-Serif" font-size="14.00">class = Exited</text>
</g>
<!-- 0&#45;&gt;1 -->
<g id="edge1" class="edge">
<title>0&#45;&gt;1</title>
<path fill="none" stroke="black" d="M521.47,-362.65C512.08,-353.8 502.15,-344.43 492.52,-335.35"/>
<polygon fill="black" stroke="black" points="494.92,-332.81 485.25,-328.49 490.12,-337.9 494.92,-332.81"/>
<text text-anchor="middle" x="484.88" y="-347.39" font-family="Helvetica,sans-Serif" font-size="14.00">True</text>
</g>
<!-- 8 -->
<g id="node9" class="node">
<title>8</title>
<path fill="#f8dbc6" stroke="black" d="M791.12,-327C791.12,-327 660.38,-327 660.38,-327 654.38,-327 648.38,-321 648.38,-315 648.38,-315 648.38,-248.5 648.38,-248.5 648.38,-242.5 654.38,-236.5 660.38,-236.5 660.38,-236.5 791.12,-236.5 791.12,-236.5 797.12,-236.5 803.12,-242.5 803.12,-248.5 803.12,-248.5 803.12,-315 803.12,-315 803.12,-321 797.12,-327 791.12,-327"/>
<text text-anchor="start" x="656.38" y="-309.7" font-family="Helvetica,sans-Serif" font-size="14.00">IsActiveMember ≤ 0.5</text>
<text text-anchor="start" x="680" y="-293.2" font-family="Helvetica,sans-Serif" font-size="14.00">entropy = 0.98</text>
<text text-anchor="start" x="674.38" y="-276.7" font-family="Helvetica,sans-Serif" font-size="14.00">samples = 2894</text>
<text text-anchor="start" x="660.88" y="-260.2" font-family="Helvetica,sans-Serif" font-size="14.00">value = [1689, 1205]</text>
<text text-anchor="start" x="681.5" y="-243.7" font-family="Helvetica,sans-Serif" font-size="14.00">class = Exited</text>
</g>
<!-- 0&#45;&gt;8 -->
<g id="edge8" class="edge">
<title>0&#45;&gt;8</title>
<path fill="none" stroke="black" d="M624.99,-362.65C636.49,-353.54 648.68,-343.87 660.46,-334.52"/>
<polygon fill="black" stroke="black" points="662.53,-337.35 668.19,-328.39 658.18,-331.86 662.53,-337.35"/>
<text text-anchor="middle" x="666.51" y="-347.24" font-family="Helvetica,sans-Serif" font-size="14.00">False</text>
</g>
<!-- 2 -->
<g id="node3" class="node">
<title>2</title>
<path fill="#e88f50" stroke="black" d="M289.38,-200.5C289.38,-200.5 160.12,-200.5 160.12,-200.5 154.12,-200.5 148.12,-194.5 148.12,-188.5 148.12,-188.5 148.12,-122 148.12,-122 148.12,-116 154.12,-110 160.12,-110 160.12,-110 289.38,-110 289.38,-110 295.38,-110 301.38,-116 301.38,-122 301.38,-122 301.38,-188.5 301.38,-188.5 301.38,-194.5 295.38,-200.5 289.38,-200.5"/>
<text text-anchor="start" x="156.12" y="-183.2" font-family="Helvetica,sans-Serif" font-size="14.00">NumOfProducts ≤ 1.5</text>
<text text-anchor="start" x="174.88" y="-166.7" font-family="Helvetica,sans-Serif" font-size="14.00">entropy = 0.477</text>
<text text-anchor="start" x="173.38" y="-150.2" font-family="Helvetica,sans-Serif" font-size="14.00">samples = 6946</text>
<text text-anchor="start" x="164" y="-133.7" font-family="Helvetica,sans-Serif" font-size="14.00">value = [6233, 713]</text>
<text text-anchor="start" x="180.5" y="-117.2" font-family="Helvetica,sans-Serif" font-size="14.00">class = Exited</text>
</g>
<!-- 1&#45;&gt;2 -->
<g id="edge2" class="edge">
<title>1&#45;&gt;2</title>
<path fill="none" stroke="black" d="M360.81,-236.15C344.52,-226.59 327.2,-216.42 310.57,-206.65"/>
<polygon fill="black" stroke="black" points="312.57,-203.77 302.18,-201.72 309.03,-209.8 312.57,-203.77"/>
</g>
<!-- 5 -->
<g id="node6" class="node">
<title>5</title>
<path fill="#7dbfee" stroke="black" d="M496.5,-200.5C496.5,-200.5 377,-200.5 377,-200.5 371,-200.5 365,-194.5 365,-188.5 365,-188.5 365,-122 365,-122 365,-116 371,-110 377,-110 377,-110 496.5,-110 496.5,-110 502.5,-110 508.5,-116 508.5,-122 508.5,-122 508.5,-188.5 508.5,-188.5 508.5,-194.5 502.5,-200.5 496.5,-200.5"/>
<text text-anchor="start" x="373" y="-183.2" font-family="Helvetica,sans-Serif" font-size="14.00">Balance ≤ 55948.91</text>
<text text-anchor="start" x="386.88" y="-166.7" font-family="Helvetica,sans-Serif" font-size="14.00">entropy = 0.821</text>
<text text-anchor="start" x="389.5" y="-150.2" font-family="Helvetica,sans-Serif" font-size="14.00">samples = 160</text>
<text text-anchor="start" x="384.25" y="-133.7" font-family="Helvetica,sans-Serif" font-size="14.00">value = [41, 119]</text>
<text text-anchor="start" x="379.38" y="-117.2" font-family="Helvetica,sans-Serif" font-size="14.00">class = Not&#45;Exited</text>
</g>
<!-- 1&#45;&gt;5 -->
<g id="edge5" class="edge">
<title>1&#45;&gt;5</title>
<path fill="none" stroke="black" d="M436.75,-236.15C436.75,-228.47 436.75,-220.39 436.75,-212.44"/>
<polygon fill="black" stroke="black" points="440.25,-212.47 436.75,-202.47 433.25,-212.47 440.25,-212.47"/>
</g>
<!-- 3 -->
<g id="node4" class="node">
<title>3</title>
<path fill="#ea9a60" stroke="black" d="M125.5,-74C125.5,-74 12,-74 12,-74 6,-74 0,-68 0,-62 0,-62 0,-12 0,-12 0,-6 6,0 12,0 12,0 125.5,0 125.5,0 131.5,0 137.5,-6 137.5,-12 137.5,-12 137.5,-62 137.5,-62 137.5,-68 131.5,-74 125.5,-74"/>
<text text-anchor="start" x="18.88" y="-56.7" font-family="Helvetica,sans-Serif" font-size="14.00">entropy = 0.643</text>
<text text-anchor="start" x="17.38" y="-40.2" font-family="Helvetica,sans-Serif" font-size="14.00">samples = 3436</text>
<text text-anchor="start" x="8" y="-23.7" font-family="Helvetica,sans-Serif" font-size="14.00">value = [2874, 562]</text>
<text text-anchor="start" x="24.5" y="-7.2" font-family="Helvetica,sans-Serif" font-size="14.00">class = Exited</text>
</g>
<!-- 2&#45;&gt;3 -->
<g id="edge3" class="edge">
<title>2&#45;&gt;3</title>
<path fill="none" stroke="black" d="M164.88,-109.64C152.3,-100.26 139.05,-90.39 126.54,-81.07"/>
<polygon fill="black" stroke="black" points="128.91,-78.47 118.8,-75.3 124.73,-84.08 128.91,-78.47"/>
</g>
<!-- 4 -->
<g id="node5" class="node">
<title>4</title>
<path fill="#e68742" stroke="black" d="M281.5,-74C281.5,-74 168,-74 168,-74 162,-74 156,-68 156,-62 156,-62 156,-12 156,-12 156,-6 162,0 168,0 168,0 281.5,0 281.5,0 287.5,0 293.5,-6 293.5,-12 293.5,-12 293.5,-62 293.5,-62 293.5,-68 287.5,-74 281.5,-74"/>
<text text-anchor="start" x="174.88" y="-56.7" font-family="Helvetica,sans-Serif" font-size="14.00">entropy = 0.256</text>
<text text-anchor="start" x="173.38" y="-40.2" font-family="Helvetica,sans-Serif" font-size="14.00">samples = 3510</text>
<text text-anchor="start" x="164" y="-23.7" font-family="Helvetica,sans-Serif" font-size="14.00">value = [3359, 151]</text>
<text text-anchor="start" x="180.5" y="-7.2" font-family="Helvetica,sans-Serif" font-size="14.00">class = Exited</text>
</g>
<!-- 2&#45;&gt;4 -->
<g id="edge4" class="edge">
<title>2&#45;&gt;4</title>
<path fill="none" stroke="black" d="M224.75,-109.64C224.75,-101.81 224.75,-93.63 224.75,-85.72"/>
<polygon fill="black" stroke="black" points="228.25,-85.91 224.75,-75.91 221.25,-85.91 228.25,-85.91"/>
</g>
<!-- 6 -->
<g id="node7" class="node">
<title>6</title>
<path fill="#fefbf9" stroke="black" d="M412.12,-74C412.12,-74 323.38,-74 323.38,-74 317.38,-74 311.38,-68 311.38,-62 311.38,-62 311.38,-12 311.38,-12 311.38,-6 317.38,0 323.38,0 323.38,0 412.12,0 412.12,0 418.12,0 424.12,-6 424.12,-12 424.12,-12 424.12,-62 424.12,-62 424.12,-68 418.12,-74 412.12,-74"/>
<text text-anchor="start" x="326.12" y="-56.7" font-family="Helvetica,sans-Serif" font-size="14.00">entropy = 1.0</text>
<text text-anchor="start" x="324.62" y="-40.2" font-family="Helvetica,sans-Serif" font-size="14.00">samples = 63</text>
<text text-anchor="start" x="319.38" y="-23.7" font-family="Helvetica,sans-Serif" font-size="14.00">value = [32, 31]</text>
<text text-anchor="start" x="323.5" y="-7.2" font-family="Helvetica,sans-Serif" font-size="14.00">class = Exited</text>
</g>
<!-- 5&#45;&gt;6 -->
<g id="edge6" class="edge">
<title>5&#45;&gt;6</title>
<path fill="none" stroke="black" d="M410.27,-109.64C405.3,-101.26 400.09,-92.49 395.09,-84.07"/>
<polygon fill="black" stroke="black" points="398.24,-82.51 390.12,-75.7 392.22,-86.08 398.24,-82.51"/>
</g>
<!-- 7 -->
<g id="node8" class="node">
<title>7</title>
<path fill="#4da7e8" stroke="black" d="M561.12,-74C561.12,-74 454.38,-74 454.38,-74 448.38,-74 442.38,-68 442.38,-62 442.38,-62 442.38,-12 442.38,-12 442.38,-6 448.38,0 454.38,0 454.38,0 561.12,0 561.12,0 567.12,0 573.12,-6 573.12,-12 573.12,-12 573.12,-62 573.12,-62 573.12,-68 567.12,-74 561.12,-74"/>
<text text-anchor="start" x="457.88" y="-56.7" font-family="Helvetica,sans-Serif" font-size="14.00">entropy = 0.446</text>
<text text-anchor="start" x="464.62" y="-40.2" font-family="Helvetica,sans-Serif" font-size="14.00">samples = 97</text>
<text text-anchor="start" x="463.5" y="-23.7" font-family="Helvetica,sans-Serif" font-size="14.00">value = [9, 88]</text>
<text text-anchor="start" x="450.38" y="-7.2" font-family="Helvetica,sans-Serif" font-size="14.00">class = Not&#45;Exited</text>
</g>
<!-- 5&#45;&gt;7 -->
<g id="edge7" class="edge">
<title>5&#45;&gt;7</title>
<path fill="none" stroke="black" d="M464,-109.64C469.11,-101.26 474.47,-92.49 479.61,-84.07"/>
<polygon fill="black" stroke="black" points="482.51,-86.04 484.73,-75.69 476.53,-82.4 482.51,-86.04"/>
</g>
<!-- 9 -->
<g id="node10" class="node">
<title>9</title>
<path fill="#bfdff7" stroke="black" d="M779.12,-200.5C779.12,-200.5 672.38,-200.5 672.38,-200.5 666.38,-200.5 660.38,-194.5 660.38,-188.5 660.38,-188.5 660.38,-122 660.38,-122 660.38,-116 666.38,-110 672.38,-110 672.38,-110 779.12,-110 779.12,-110 785.12,-110 791.12,-116 791.12,-122 791.12,-122 791.12,-188.5 791.12,-188.5 791.12,-194.5 785.12,-200.5 779.12,-200.5"/>
<text text-anchor="start" x="690.88" y="-183.2" font-family="Helvetica,sans-Serif" font-size="14.00">Age ≤ 50.5</text>
<text text-anchor="start" x="675.88" y="-166.7" font-family="Helvetica,sans-Serif" font-size="14.00">entropy = 0.973</text>
<text text-anchor="start" x="674.38" y="-150.2" font-family="Helvetica,sans-Serif" font-size="14.00">samples = 1303</text>
<text text-anchor="start" x="669.12" y="-133.7" font-family="Helvetica,sans-Serif" font-size="14.00">value = [525, 778]</text>
<text text-anchor="start" x="668.38" y="-117.2" font-family="Helvetica,sans-Serif" font-size="14.00">class = Not&#45;Exited</text>
</g>
<!-- 8&#45;&gt;9 -->
<g id="edge9" class="edge">
<title>8&#45;&gt;9</title>
<path fill="none" stroke="black" d="M725.75,-236.15C725.75,-228.47 725.75,-220.39 725.75,-212.44"/>
<polygon fill="black" stroke="black" points="729.25,-212.47 725.75,-202.47 722.25,-212.47 729.25,-212.47"/>
</g>
<!-- 12 -->
<g id="node13" class="node">
<title>12</title>
<path fill="#efaf82" stroke="black" d="M1020.38,-200.5C1020.38,-200.5 891.12,-200.5 891.12,-200.5 885.12,-200.5 879.12,-194.5 879.12,-188.5 879.12,-188.5 879.12,-122 879.12,-122 879.12,-116 885.12,-110 891.12,-110 891.12,-110 1020.38,-110 1020.38,-110 1026.38,-110 1032.38,-116 1032.38,-122 1032.38,-122 1032.38,-188.5 1032.38,-188.5 1032.38,-194.5 1026.38,-200.5 1020.38,-200.5"/>
<text text-anchor="start" x="887.12" y="-183.2" font-family="Helvetica,sans-Serif" font-size="14.00">NumOfProducts ≤ 2.5</text>
<text text-anchor="start" x="905.88" y="-166.7" font-family="Helvetica,sans-Serif" font-size="14.00">entropy = 0.839</text>
<text text-anchor="start" x="904.38" y="-150.2" font-family="Helvetica,sans-Serif" font-size="14.00">samples = 1591</text>
<text text-anchor="start" x="895" y="-133.7" font-family="Helvetica,sans-Serif" font-size="14.00">value = [1164, 427]</text>
<text text-anchor="start" x="911.5" y="-117.2" font-family="Helvetica,sans-Serif" font-size="14.00">class = Exited</text>
</g>
<!-- 8&#45;&gt;12 -->
<g id="edge12" class="edge">
<title>8&#45;&gt;12</title>
<path fill="none" stroke="black" d="M803.62,-238.6C824.54,-227.27 847.31,-214.95 868.7,-203.37"/>
<polygon fill="black" stroke="black" points="870.28,-206.49 877.41,-198.65 866.95,-200.34 870.28,-206.49"/>
</g>
<!-- 10 -->
<g id="node11" class="node">
<title>10</title>
<path fill="#fdf3ec" stroke="black" d="M708.38,-74C708.38,-74 603.12,-74 603.12,-74 597.12,-74 591.12,-68 591.12,-62 591.12,-62 591.12,-12 591.12,-12 591.12,-6 597.12,0 603.12,0 603.12,0 708.38,0 708.38,0 714.38,0 720.38,-6 720.38,-12 720.38,-12 720.38,-62 720.38,-62 720.38,-68 714.38,-74 708.38,-74"/>
<text text-anchor="start" x="605.88" y="-56.7" font-family="Helvetica,sans-Serif" font-size="14.00">entropy = 0.998</text>
<text text-anchor="start" x="608.5" y="-40.2" font-family="Helvetica,sans-Serif" font-size="14.00">samples = 878</text>
<text text-anchor="start" x="599.12" y="-23.7" font-family="Helvetica,sans-Serif" font-size="14.00">value = [461, 417]</text>
<text text-anchor="start" x="611.5" y="-7.2" font-family="Helvetica,sans-Serif" font-size="14.00">class = Exited</text>
</g>
<!-- 9&#45;&gt;10 -->
<g id="edge10" class="edge">
<title>9&#45;&gt;10</title>
<path fill="none" stroke="black" d="M698.89,-109.64C693.84,-101.26 688.56,-92.49 683.49,-84.07"/>
<polygon fill="black" stroke="black" points="686.6,-82.45 678.45,-75.69 680.61,-86.06 686.6,-82.45"/>
</g>
<!-- 11 -->
<g id="node12" class="node">
<title>11</title>
<path fill="#5caeea" stroke="black" d="M857.12,-74C857.12,-74 750.38,-74 750.38,-74 744.38,-74 738.38,-68 738.38,-62 738.38,-62 738.38,-12 738.38,-12 738.38,-6 744.38,0 750.38,0 750.38,0 857.12,0 857.12,0 863.12,0 869.12,-6 869.12,-12 869.12,-12 869.12,-62 869.12,-62 869.12,-68 863.12,-74 857.12,-74"/>
<text text-anchor="start" x="753.88" y="-56.7" font-family="Helvetica,sans-Serif" font-size="14.00">entropy = 0.611</text>
<text text-anchor="start" x="756.5" y="-40.2" font-family="Helvetica,sans-Serif" font-size="14.00">samples = 425</text>
<text text-anchor="start" x="751.25" y="-23.7" font-family="Helvetica,sans-Serif" font-size="14.00">value = [64, 361]</text>
<text text-anchor="start" x="746.38" y="-7.2" font-family="Helvetica,sans-Serif" font-size="14.00">class = Not&#45;Exited</text>
</g>
<!-- 9&#45;&gt;11 -->
<g id="edge11" class="edge">
<title>9&#45;&gt;11</title>
<path fill="none" stroke="black" d="M755.68,-109.64C761.36,-101.17 767.32,-92.3 773.02,-83.8"/>
<polygon fill="black" stroke="black" points="775.82,-85.9 778.49,-75.65 770.01,-82 775.82,-85.9"/>
</g>
<!-- 13 -->
<g id="node14" class="node">
<title>13</title>
<path fill="#eda877" stroke="black" d="M1012.5,-74C1012.5,-74 899,-74 899,-74 893,-74 887,-68 887,-62 887,-62 887,-12 887,-12 887,-6 893,0 899,0 899,0 1012.5,0 1012.5,0 1018.5,0 1024.5,-6 1024.5,-12 1024.5,-12 1024.5,-62 1024.5,-62 1024.5,-68 1018.5,-74 1012.5,-74"/>
<text text-anchor="start" x="905.88" y="-56.7" font-family="Helvetica,sans-Serif" font-size="14.00">entropy = 0.792</text>
<text text-anchor="start" x="904.38" y="-40.2" font-family="Helvetica,sans-Serif" font-size="14.00">samples = 1521</text>
<text text-anchor="start" x="895" y="-23.7" font-family="Helvetica,sans-Serif" font-size="14.00">value = [1159, 362]</text>
<text text-anchor="start" x="911.5" y="-7.2" font-family="Helvetica,sans-Serif" font-size="14.00">class = Exited</text>
</g>
<!-- 12&#45;&gt;13 -->
<g id="edge13" class="edge">
<title>12&#45;&gt;13</title>
<path fill="none" stroke="black" d="M955.75,-109.64C955.75,-101.81 955.75,-93.63 955.75,-85.72"/>
<polygon fill="black" stroke="black" points="959.25,-85.91 955.75,-75.91 952.25,-85.91 959.25,-85.91"/>
</g>
<!-- 14 -->
<g id="node15" class="node">
<title>14</title>
<path fill="#48a5e7" stroke="black" d="M1161.12,-74C1161.12,-74 1054.38,-74 1054.38,-74 1048.38,-74 1042.38,-68 1042.38,-62 1042.38,-62 1042.38,-12 1042.38,-12 1042.38,-6 1048.38,0 1054.38,0 1054.38,0 1161.12,0 1161.12,0 1167.12,0 1173.12,-6 1173.12,-12 1173.12,-12 1173.12,-62 1173.12,-62 1173.12,-68 1167.12,-74 1161.12,-74"/>
<text text-anchor="start" x="1057.88" y="-56.7" font-family="Helvetica,sans-Serif" font-size="14.00">entropy = 0.371</text>
<text text-anchor="start" x="1064.62" y="-40.2" font-family="Helvetica,sans-Serif" font-size="14.00">samples = 70</text>
<text text-anchor="start" x="1063.5" y="-23.7" font-family="Helvetica,sans-Serif" font-size="14.00">value = [5, 65]</text>
<text text-anchor="start" x="1050.38" y="-7.2" font-family="Helvetica,sans-Serif" font-size="14.00">class = Not&#45;Exited</text>
</g>
<!-- 12&#45;&gt;14 -->
<g id="edge14" class="edge">
<title>12&#45;&gt;14</title>
<path fill="none" stroke="black" d="M1014.08,-109.64C1026.22,-100.35 1039,-90.58 1051.08,-81.34"/>
<polygon fill="black" stroke="black" points="1053.15,-84.17 1058.96,-75.31 1048.89,-78.61 1053.15,-84.17"/>
</g>
</g>
</svg>
